<?xml version="1.0" ?><!DOCTYPE svg  PUBLIC '-//W3C//DTD SVG 1.1//EN'  'http://www.w3.org/Graphics/SVG/1.1/DTD/svg11.dtd' [
	<!ENTITY stroke_color "#000">
	<!ENTITY fill_color "#eee">
]><svg height="55px" viewBox="0 0 55 55" width="55px" xmlns="http://www.w3.org/2000/svg" xmlns:xlink="http://www.w3.org/1999/xlink" stroke-linecap="round" stroke-linejoin="round" stroke-width="3.5" stroke="&stroke_color;" fill="&fill_color;">
  <path
     d="m 22.552528,46.821472 c -0.365383,0 -0.726141,-0.02313 -1.081614,-0.06607 l 0.917092,1.552052 0.903877,-1.528266 c -0.24513,0.01982 -0.4896,0.04229 -0.739355,0.04229 z"
     id="path6"
     style="fill:none;stroke:&stroke_color;;stroke-width:2;stroke-miterlimit:4;stroke-opacity:1;stroke-dasharray:none" />
  <path
     d="m 30.919338,22.669847 c -1.429817,0 -2.615165,1.027434 -2.869546,2.38325 1.228295,0.88868 2.28414,2.05817 3.088908,3.441076 1.509766,-0.113646 2.705024,-1.361763 2.705024,-2.9006 0,-1.614822 -1.309564,-2.923726 -2.924386,-2.923726 z"
     id="path10"
     style="fill:&fill_color;;fill-opacity:1;stroke:&stroke_color;;stroke-width:2;stroke-miterlimit:4;stroke-opacity:1;stroke-dasharray:none" />
  <path
     d="m 31.284721,41.276634 c -0.808732,1.474747 -1.889685,2.729472 -3.169517,3.67101 0.34424,1.231599 1.462194,2.140101 2.804134,2.140101 1.614161,0 2.924386,-1.308243 2.924386,-2.923064 0,-1.489944 -1.118614,-2.706346 -2.559003,-2.888047 z"
     id="path12"
     style="fill:&fill_color;;fill-opacity:1;stroke:&stroke_color;;stroke-width:2;stroke-miterlimit:4;stroke-opacity:1;stroke-dasharray:none" />
  <path
     d="m 13.815048,41.266063 c -1.488622,0.13611 -2.658773,1.373655 -2.658773,2.898618 0,1.61416 1.308244,2.923064 2.923065,2.923064 1.363745,0 2.500198,-0.938235 2.822634,-2.201548 -1.244153,-0.935593 -2.296033,-2.173138 -3.086926,-3.620134 z"
     id="path14"
     style="fill:&fill_color;;fill-opacity:1;stroke:&stroke_color;;stroke-width:2;stroke-miterlimit:4;stroke-opacity:1;stroke-dasharray:none" />
  <path
     d="m 16.955493,25.121812 c -0.22663,-1.389513 -1.42321,-2.451965 -2.876153,-2.451965 -1.614821,0 -2.923065,1.308904 -2.923065,2.923065 0,1.573856 1.246135,2.847742 2.804795,2.911172 0.783624,-1.34987 1.805111,-2.500199 2.994423,-3.382272 z"
     id="path16"
     style="fill:&fill_color;;fill-opacity:1;stroke:&stroke_color;;stroke-width:2;stroke-miterlimit:4;stroke-opacity:1;stroke-dasharray:none" />
  <path
     d="m 22.552528,23.222877 c 1.26067,0 2.463197,0.27156 3.579829,0.745303 0.4896,-0.710945 0.778339,-1.570553 0.778339,-2.499538 0,-2.436107 -1.974919,-4.411687 -4.411687,-4.411687 -2.436108,0 -4.411027,1.97558 -4.411027,4.411687 0,0.943521 0.29865,1.816344 0.803447,2.533235 1.139096,-0.494886 2.370034,-0.779 3.661099,-0.779 z"
     id="path18"
     style="fill:&fill_color;;fill-opacity:1;stroke:&stroke_color;;stroke-width:2;stroke-miterlimit:4;stroke-opacity:1;stroke-dasharray:none" />
  <g
     transform="matrix(0.66072892,0,0,0.66072892,4.3844646,14.92214)"
     id="g20"
     style="fill:&fill_color;;fill-opacity:1;stroke:&stroke_color;;stroke-width:3.0269599;stroke-miterlimit:4;stroke-opacity:1;stroke-dasharray:none">
    <stoke_color />
    <path
       d="m 43.102,30.421 c 0,4.7344 -1.6452,9.2798 -4.5706,12.6275 -2.9254,3.3478 -6.8973,5.2305 -11.0344,5.2305 -4.1371,0 -8.109,-1.8827 -11.0344,-5.2305 -2.9254,-3.3477 -4.5706,-7.8931 -4.5706,-12.6275 0,-9.7966 7.0444,-17.858 15.605,-17.858 8.5606,0 15.605,8.0614 15.605,17.858 z"
       id="path22"
       style="fill:&fill_color;;fill-opacity:1;stroke:&stroke_color;;stroke-width:3.0269599;stroke-miterlimit:4;stroke-opacity:1;stroke-dasharray:none" />
  </g>
  <g
     transform="matrix(0.66072892,0,0,0.66072892,4.3844646,14.92214)"
     id="g24"
     style="fill:&stroke_color;;fill-opacity:1;stroke:none">
    <stoke_color />
    <path
       d="m 25.875,33.75 -1.542,-4.625 3.164,-2.587 3.615,2.626 -1.487,4.669 z"
       id="path26"
       style="fill:&stroke_color;;fill-opacity:1;stroke:none" />
    <stoke_color />
    <path
       d="m 27.501,41.551 c -3.968,-0.16 -5.543,-2.009 -5.543,-2.009 l 3.57,-4.163 4.465,0.168 3.132,4.12 c 0,0 -2.89,1.994 -5.624,1.884 z"
       id="path28"
       style="fill:&stroke_color;;fill-opacity:1;stroke:none" />
    <stoke_color />
    <path
       d="m 18.453,33.843 c -0.849,-2.968 0.172,-6.884 0.172,-6.884 l 4,2.167 1.493,4.629 -3.582,4.233 c 0,-10e-4 -1.465,-1.99 -2.083,-4.145 z"
       id="path30"
       style="fill:&stroke_color;;fill-opacity:1;stroke:none" />
    <stoke_color />
    <path
       d="m 19.458,25.125 c 0,0 0.5,-1.958 3.039,-3.822 2.237,-1.643 4.465,-1.72 4.465,-1.72 l -0.037,4.981 -3.521,2.75 -3.946,-2.189 z"
       id="path32"
       style="fill:&stroke_color;;fill-opacity:1;stroke:none" />
    <stoke_color />
    <path
       d="M 32.084,27.834 28.625,24.959 29,19.75 c 0,0 1.834,-0.042 3.959,1.667 2.228,1.791 3.362,4.983 3.362,4.983 l -4.237,1.434 z"
       id="path34"
       style="fill:&stroke_color;;fill-opacity:1;stroke:none" />
    <stoke_color />
    <path
       d="m 31.292,34.042 1.313,-4.464 4.187,-1.536 c 0,0 0.677,2.663 -0.042,5.667 -0.54,2.256 -2.084,4.361 -2.084,4.361 l -3.374,-4.028 z"
       id="path36"
       style="fill:&stroke_color;;fill-opacity:1;stroke:none" />
  </g>
  <g
     id="g3870">
    <rect
       width="39.507042"
       height="39.507042"
       x="2.7464788"
       y="12.928682"
       id="rect3019"
       style="fill:none;stroke:&stroke_color;;stroke-width:2.49295759;stroke-linecap:square;stroke-linejoin:miter;stroke-miterlimit:4;stroke-opacity:1;stroke-dasharray:none;stroke-dashoffset:0" />
    <path
       d="M 2.4527502,12.732891 22.804445,2.2328906 52.75,2.432203 l -10.25,10.5 0,39.567797 10.25,-20.258475 0,-29.809322"
       id="path3789"
       style="fill:none;stroke:&stroke_color;;stroke-width:2.5;stroke-linecap:butt;stroke-linejoin:round;stroke-miterlimit:4;stroke-opacity:1;stroke-dasharray:none" />
  </g>
</svg>
